<svg width="24" height="24" viewBox="0 0 24 24" fill="none" xmlns="http://www.w3.org/2000/svg">
<path d="M17.5 22V19H14.5V17.5H17.5V14.5H19V17.5H22V19H19V22H17.5ZM4.5 20C4.1 20 3.75 19.85 3.45 19.55C3.15 19.25 3 18.9 3 18.5V5C3 4.6 3.15 4.25 3.45 3.95C3.75 3.65 4.1 3.5 4.5 3.5H6.125V2H7.75V3.5H14.25V2H15.875V3.5H17.5C17.9 3.5 18.25 3.65 18.55 3.95C18.85 4.25 19 4.6 19 5V12.55C18.75 12.5167 18.5 12.5 18.25 12.5C18 12.5 17.75 12.5167 17.5 12.55V9.75H4.5V18.5H12.5C12.5 18.75 12.525 19 12.575 19.25C12.625 19.5 12.6917 19.75 12.775 20H4.5Z" fill="#3C5896"/>
</svg>
